<svg width="1408" height="350" fill="none" xmlns="http://www.w3.org/2000/svg"><path d="M207.91 83.93s-7.08 2.49-13.47 7.61c7.46-1.78 16.13-3.08 25.97-3.08 5.89 0 11.79.47 17.69 1.34-2.69-17.25-5.03-34.97-4.14-39.98 1.86-10.55 8.69-9.93 9.31-16.14 0 0 19.44-12.47 46.33-13.37 0 0-13.51-22.51-54.03-13.51 0 0-12.17-13.13-38.85-2.13-21.12 8.71-18.54 47.45-29.46 75.23 0 0 20-6.44 40.66 4.01l-.01.02Zm10.82-71.55a4.79 4.79 0 1 1-.001 9.581 4.79 4.79 0 0 1 .001-9.581Z" fill="#000"/><path d="M172.95 107.76c8.14-19.14 16.42-23.12 16.42-23.12-53.65-1.1-72.97 36.81-72.97 36.81 7.26-23.06 16.23-31.94 16.23-31.94-34.88 10.08-54.91 50.89-54.91 50.89.58-7.73 3.45-19.35 3.45-19.35-23.25 26.74-23.89 60.98-22.87 75.88l-21.12 33.66 27.32-31.64c62.64-62.34 123.86-68.18 123.86-68.18C93.58 150.86 10.65 292.39 10.65 292.39l26.1-21.4c8.45-31.35 39.8-57.09 39.8-57.09 40.46 4.39 68.02-25.99 68.02-25.99-13.59-.84-22.47-4.65-22.47-4.65 13.51.02 39.46-7.52 60.96-23.13 21.49-15.61 38.85-12.13 38.85-12.13-11.2-7.08-33.16-4.77-33.16-4.77 23.1-9.43 40.64-2.3 40.64-2.3 35.61-21.32 72-17.7 72-17.7-74.11-53.48-128.44-15.48-128.44-15.48v.01Z" fill="#000"/><path d="M236.47 152.62c-27.31-1.08-61.23 23.13-61.23 23.13-4.37 2.43-8.8 4.61-13.2 6.51l-10.34 11.39c-1.03 1.13-32.14 26.73-67.86 29.85L56 260.99c4.02-3.98 8.12-7.87 12.09-11.45l.06-.06c8.78-7.9 16.87-14.2 21.68-15.73 7.04-2.24 13.88-4.63 18.88-6.44-3.62 10.19-7.27 26.04-.19 36.68 7.81 11.72 13.49 20.08 16.2 24.06H99.14l-6.99 8.7h127.76l-9.57-8.7h-33.87c-7.6-11.25-24.82-41.92-2.87-62.37 20.99-19.56 54.03-39.13 62.87-73.06Zm-69.3 135.43h-32.79c-6.58-8.79-25.37-37.93-3.67-59.27 10.24-3.44 20.79-8.13 24.28-13.65 0 0-15.51 29.79-4.34 46.54a579.75 579.75 0 0 1 16.53 26.37l-.01.01Zm132.27-142.52h34.88c37.97 0 41.97 27.8 41.97 37.24 0 14.9-7.45 21.44-11.99 25.44 5.63 3.27 19.98 11.81 19.98 32.7 0 13.81-7.63 39.06-44.69 39.06h-40.15V145.53Zm19.62 55.95h15.99c18.35 0 21.62-11.08 21.62-18.9 0-19.07-18.35-19.07-22.71-19.07h-14.9v37.97Zm0 60.5h21.26c19.8 0 24.35-14.17 24.35-21.08 0-4.9-2-9.63-4.72-13.26-6-8-15.08-8.18-21.98-8.18h-18.9v42.52h-.01Zm103-82.66v54.5c0 24.89 11.08 31.43 25.07 31.43 15.62 0 26.34-9.99 26.34-31.98v-53.96h18.9v100.65h-17.26v-10.9h-.36c-5.09 8.72-16.89 13.44-29.61 13.44-11.45 0-21.44-3.64-28.7-9.99-8.36-7.26-13.26-18.53-13.26-38.7v-54.5h18.89l-.01.01Zm94.65 100.65V179.32h17.62v9.08h.36c7.99-11.26 20.89-11.63 25.61-11.81v19.44c-2.91 0-9.08 1.27-13.63 3.63-5.99 3.27-11.08 10.9-11.08 25.25v55.05h-18.9l.02.01Zm58.14 0V145.53h18.9v47.78h.36c8.17-11.44 20.89-16.71 34.52-16.71 26.71 0 52.14 21.98 52.14 53.05 0 29.07-22.34 52.87-51.78 52.87-9.27 0-24.71-3.27-35.06-17.08h-.36v14.54h-18.71l-.01-.01Zm52.69-14.71c18.17 0 34.34-15.63 34.34-35.61 0-18.9-14.53-35.79-34.34-35.79-19.81 0-34.34 17.62-34.34 35.43 0 22.71 17.44 35.98 34.34 35.98v-.01Zm72.3 14.71V179.32h17.62v9.08h.36c7.99-11.26 20.89-11.63 25.61-11.81v19.44c-2.91 0-9.08 1.27-13.62 3.63-6 3.27-11.08 10.9-11.08 25.25v55.05h-18.9l.01.01Zm80.66-112.28h-18.9v-22.17h18.9v22.17Zm0 112.28h-18.9V179.32h18.9v100.65Zm107.37-14.35h-.37c-7.99 11.08-20.89 16.9-35.6 16.9-33.43 0-52.32-25.98-52.32-52.51 0-24.53 16.71-53.41 52.32-53.41 13.99 0 26.89 5.81 34.15 15.08h.36v-46.14h18.9v134.44h-17.44v-14.36Zm-34.88-71.77c-23.25 0-34.52 20.17-34.52 35.97 0 18.17 14.35 35.43 34.34 35.43 19.99 0 35.06-16.17 35.06-35.43 0-21.43-15.44-35.97-34.88-35.97Zm179.13 72.49c0 33.07-20.17 53.23-54.5 53.23-23.44 0-41.24-12.72-49.6-31.79h21.07c2.91 3.99 10.72 14.53 28.71 14.53 19.98-.18 35.43-9.45 35.43-35.61h-.36c-3.45 4.73-13.45 15.81-34.7 15.81-33.24 0-53.77-28.71-53.77-53.23 0-22.34 17.62-52.68 54.14-52.68 14.9 0 27.98 6.72 34.7 14.35v-11.63h18.9v87.02h-.02Zm-53.96-72.49c-19.98 0-34.88 16.71-34.88 35.79s14.54 35.61 34.7 35.61c24.7 0 35.24-22.53 35.24-35.43 0-28.34-23.44-35.97-35.06-35.97Zm91.93 43.97c4.72 19.44 20.35 27.44 33.06 27.44 13.99 0 24.16-8.18 28.71-16.9h18.9c-9.63 25.98-32.7 34.15-48.33 34.15-28.52 0-51.23-24.53-51.23-53.05 0-30.16 23.25-52.87 51.6-52.87s51.05 22.16 51.23 51.6c0 3.27-.37 8.36-.55 9.63h-83.39Zm65.04-14.54c-.91-14.71-14.35-29.43-32.52-29.43s-31.61 14.71-32.52 29.43h65.04Zm41.42 56.69V257.8h18.9v22.17h-18.9Zm65.58 0h-18.9V145.53h18.9v134.44Zm73.4 2.54c-33.79 0-54.32-28.16-54.32-53.59 0-27.44 23.07-52.32 54.32-52.32s54.32 23.98 54.32 52.68c0 24.53-20.16 53.23-54.32 53.23Zm0-88.66c-21.26 0-35.43 17.62-35.43 35.61s14.35 35.79 35.43 35.79 35.43-16.9 35.43-35.98c0-17.8-14.17-35.43-35.43-35.43v.01Zm92.47 86.12h-18.9V145.53h18.9v134.44ZM0 326.22c9.96 7.94 21.84 12.76 33.9 15.28 12.12 2.48 24.59 2.13 36.64-.01 12.19-2.05 23.5-6.71 35.02-11.73 11.68-5.32 23.84-9.7 36.2-13.49 24.78-7.13 51.58-10.08 77.22-4.73 12.78 2.59 25.05 7.04 36.61 12.69 11.49 5.84 22.16 13 32.11 20.91-11.16-6.15-22.31-12.1-34.03-16.6-11.7-4.49-23.75-7.77-35.97-9.61-12.23-1.81-24.64-1.95-36.9-.65-12.26 1.25-24.47 3.56-36.37 7.22a311.988 311.988 0 0 0-35.27 12.6c-11.88 4.61-24.37 9.51-37.48 10.78-13 1.65-26.4.91-38.92-2.82-12.39-3.93-24.19-10.28-32.75-19.83l-.01-.01Z" fill="#000"/></svg>