<svg width="326" height="378" fill="none" xmlns="http://www.w3.org/2000/svg"><path d="M224.47 90.283s-7.65 2.69-14.54 8.22a119.67 119.67 0 0 1 28.04-3.32c6.36 0 12.73.5 19.09 1.45-2.91-18.62-5.43-37.75-4.47-43.16 2.01-11.39 9.38-10.72 10.05-17.42 0 0 20.98-13.46 50.02-14.43 0 0-14.58-24.3-58.33-14.58 0 0-13.13-14.18-41.94-2.3-22.8 9.4-20.02 51.22-31.81 81.21 0 0 21.59-6.95 43.89 4.33Zm11.68-77.24a5.17 5.17 0 0 1 5.17 5.17c0 2.86-2.31 5.17-5.17 5.17s-5.17-2.31-5.17-5.17 2.31-5.17 5.17-5.17Z" fill="#22C55E"/><path d="M186.73 116.003c8.79-20.66 17.73-24.96 17.73-24.96-57.92-1.19-78.77 39.74-78.77 39.74 7.83-24.89 17.52-34.48 17.52-34.48-37.65 10.88-59.28 54.94-59.28 54.94.63-8.34 3.72-20.89 3.72-20.89-25.1 28.86-25.8 65.83-24.68 81.92l-22.8 36.34 29.5-34.16c67.62-67.3 133.71-73.6 133.71-73.6-102.32 21.69-191.84 174.48-191.84 174.48l28.18-23.1c9.12-33.84 42.96-61.63 42.96-61.63 43.68 4.74 73.43-28.05 73.43-28.05-14.67-.91-24.26-5.01-24.26-5.01 14.59.02 42.6-8.12 65.81-24.97 23.2-16.85 41.94-13.1 41.94-13.1-12.09-7.64-35.79-5.15-35.79-5.15 24.94-10.18 43.87-2.48 43.87-2.48 38.45-23.02 77.72-19.11 77.72-19.11-80-57.73-138.66-16.72-138.66-16.72l-.01-.01Z" fill="#fff"/><path d="M255.3 164.433c-29.48-1.17-66.11 24.97-66.11 24.97-4.72 2.62-9.5 4.98-14.26 7.02l-11.16 12.3c-1.11 1.22-34.7 28.86-73.26 32.22l-30.06 40.48c4.34-4.29 8.76-8.49 13.06-12.36l.07-.07c9.47-8.53 18.21-15.33 23.4-16.98 7.6-2.42 14.98-5 20.39-6.95-3.91 11-7.85 28.12-.2 39.59 8.43 12.65 14.56 21.68 17.49 25.98h-27.62l-7.54 9.39h137.92l-10.33-9.39h-36.56c-8.21-12.15-26.8-45.25-3.1-67.33 22.66-21.11 58.33-42.25 67.87-78.87Zm-74.82 146.2h-35.4c-7.1-9.49-27.39-40.95-3.96-63.99 11.06-3.72 22.44-8.77 26.21-14.73 0 0-16.75 32.16-4.69 50.25 8 12 14.42 22.64 17.84 28.47Z" fill="#22C55E"/><path d="M.02 351.843c10.75 8.57 23.58 13.77 36.6 16.49 13.09 2.68 26.55 2.3 39.55-.01 13.16-2.22 25.37-7.25 37.81-12.66 12.61-5.75 25.73-10.47 39.07-14.56 26.75-7.7 55.68-10.89 83.36-5.11 13.79 2.79 27.04 7.6 39.52 13.7 12.4 6.31 23.92 14.03 34.66 22.58-12.04-6.64-24.08-13.07-36.73-17.92-12.63-4.85-25.64-8.39-38.83-10.37-13.2-1.95-26.6-2.1-39.84-.7-13.24 1.35-26.42 3.84-39.27 7.79a338.74 338.74 0 0 0-38.08 13.6c-12.83 4.98-26.31 10.26-40.46 11.63-14.04 1.78-28.5.98-42.02-3.05-13.37-4.25-26.12-11.1-35.36-21.41h.02Z" fill="#fff"/></svg>