<svg width="302" height="350" fill="none" xmlns="http://www.w3.org/2000/svg"><path d="M207.91 83.93s-7.08 2.49-13.47 7.61c7.46-1.78 16.13-3.08 25.97-3.08 5.89 0 11.79.47 17.69 1.34-2.69-17.25-5.03-34.97-4.14-39.98 1.86-10.55 8.69-9.93 9.31-16.14 0 0 19.44-12.47 46.33-13.37 0 0-13.51-22.51-54.03-13.51 0 0-12.17-13.13-38.85-2.13-21.12 8.71-18.54 47.45-29.46 75.23 0 0 20-6.44 40.66 4.01l-.01.02Zm10.82-71.55a4.79 4.79 0 1 1-.001 9.581 4.79 4.79 0 0 1 .001-9.581Z" fill="#000"/><path d="M172.95 107.76c8.14-19.14 16.42-23.12 16.42-23.12-53.65-1.1-72.97 36.81-72.97 36.81 7.26-23.06 16.23-31.94 16.23-31.94-34.88 10.08-54.91 50.89-54.91 50.89.58-7.73 3.45-19.35 3.45-19.35-23.25 26.74-23.89 60.98-22.87 75.88l-21.12 33.66 27.32-31.64c62.64-62.34 123.86-68.18 123.86-68.18C93.58 150.86 10.65 292.39 10.65 292.39l26.1-21.4c8.45-31.35 39.8-57.09 39.8-57.09 40.46 4.39 68.02-25.99 68.02-25.99-13.59-.84-22.47-4.65-22.47-4.65 13.51.02 39.46-7.52 60.96-23.13 21.49-15.61 38.85-12.13 38.85-12.13-11.2-7.08-33.16-4.77-33.16-4.77 23.1-9.43 40.64-2.3 40.64-2.3 35.61-21.32 72-17.7 72-17.7-74.11-53.48-128.44-15.48-128.44-15.48v.01Z" fill="#000"/><path d="M236.47 152.62c-27.31-1.08-61.23 23.13-61.23 23.13-4.37 2.43-8.8 4.61-13.2 6.51l-10.34 11.39c-1.03 1.13-32.14 26.73-67.86 29.85L56 260.99c4.02-3.98 8.12-7.87 12.09-11.45l.06-.06c8.78-7.9 16.87-14.2 21.68-15.73 7.04-2.24 13.88-4.63 18.88-6.44-3.62 10.19-7.27 26.04-.19 36.68 7.81 11.72 13.49 20.08 16.2 24.06H99.14l-6.99 8.7h127.76l-9.57-8.7h-33.87c-7.6-11.25-24.82-41.92-2.87-62.37 20.99-19.56 54.03-39.13 62.87-73.06Zm-69.3 135.43h-32.79c-6.58-8.79-25.37-37.93-3.67-59.27 10.24-3.44 20.79-8.13 24.28-13.65 0 0-15.51 29.79-4.34 46.54a579.75 579.75 0 0 1 16.53 26.37l-.01.01ZM0 326.22c9.96 7.94 21.84 12.76 33.9 15.28 12.12 2.48 24.59 2.13 36.64-.01 12.19-2.05 23.5-6.71 35.02-11.73 11.68-5.32 23.84-9.7 36.2-13.49 24.78-7.13 51.58-10.08 77.22-4.73 12.78 2.59 25.05 7.04 36.61 12.69 11.49 5.84 22.16 13 32.11 20.91-11.16-6.15-22.31-12.1-34.03-16.6-11.7-4.49-23.75-7.77-35.97-9.61-12.23-1.81-24.64-1.95-36.9-.65-12.26 1.25-24.47 3.56-36.37 7.22a311.988 311.988 0 0 0-35.27 12.6c-11.88 4.61-24.37 9.51-37.48 10.78-13 1.65-26.4.91-38.92-2.82-12.39-3.93-24.19-10.28-32.75-19.83l-.01-.01Z" fill="#000"/></svg>